<svg width="24" height="24" viewBox="0 0 24 24" fill="none" xmlns="http://www.w3.org/2000/svg">
<path d="M10.7999 2.40039C11.5283 2.40039 12.1883 2.83239 12.4799 3.49959L15.3215 9.99159L19.2047 9.75039C19.8014 9.71327 20.3884 9.91465 20.8367 10.3103C21.285 10.7059 21.5578 11.2633 21.5951 11.86L21.5999 12.0004C21.5999 12.5984 21.3623 13.1719 20.9395 13.5948C20.5166 14.0176 19.9431 14.2552 19.3451 14.2552L19.2047 14.2504L15.3215 14.008L12.4811 20.5C12.3383 20.827 12.1031 21.1053 11.8045 21.3008C11.5059 21.4962 11.1568 21.6004 10.7999 21.6004C10.5189 21.6004 10.2494 21.4888 10.0507 21.29C9.85194 21.0913 9.7403 20.8218 9.7403 20.5408L9.7427 20.4748L10.5863 13.7116L7.6367 13.5268L6.2687 16.2628C6.18817 16.4243 6.06421 16.5602 5.91074 16.6551C5.75728 16.7501 5.58038 16.8004 5.3999 16.8004C5.24077 16.8004 5.08816 16.7372 4.97564 16.6247C4.86312 16.5121 4.7999 16.3595 4.7999 16.2004V13.3492L3.5255 13.2712C3.22052 13.2522 2.93425 13.1177 2.72509 12.8949C2.51592 12.6721 2.39962 12.378 2.3999 12.0724V11.926C2.39993 11.6206 2.51636 11.3268 2.7255 11.1042C2.93463 10.8817 3.22073 10.7473 3.5255 10.7284L4.7999 10.6504V7.80039C4.7999 7.64126 4.86312 7.48865 4.97564 7.37613C5.08816 7.26361 5.24077 7.20039 5.3999 7.20039C5.58022 7.20041 5.75698 7.2506 5.91041 7.34533C6.06384 7.44005 6.18789 7.57559 6.2687 7.73679L7.6355 10.4728L10.5863 10.288L9.7487 3.59199C9.72998 3.44288 9.74319 3.29149 9.78746 3.14788C9.83173 3.00427 9.90603 2.87171 10.0055 2.75902C10.1049 2.64632 10.2271 2.55606 10.3641 2.49423C10.5011 2.4324 10.6496 2.40041 10.7999 2.40039V2.40039Z" fill="#8F8F8F"/>
</svg>
