<svg width="224" height="91" viewBox="0 0 224 91" fill="none" xmlns="http://www.w3.org/2000/svg">
<rect width="36" height="14" fill="#F89C6D"/>
<path opacity="0.7" d="M1.176 82.924L1.608 83.896C3.396 83.656 4.776 82.888 5.496 81.784C6.216 82.888 7.596 83.668 9.384 83.896L9.828 82.924C7.728 82.672 6.228 81.532 6.132 80.368H9.48V79.372H6.12V78.088H4.884V79.372H1.536V80.368H4.872C4.776 81.532 3.276 82.672 1.176 82.924ZM10.404 85.624V84.604H0.612V85.624H4.884V88.948H6.12V85.624H10.404ZM17.5431 84.196L18.0951 83.236C16.4511 82.78 15.4671 81.616 15.4671 80.38V80.26H17.7471V79.276H15.4791V78.04H14.2311V79.276H11.9511V80.26H14.2311V80.38C14.2311 81.712 13.2831 82.936 11.6151 83.416L12.2031 84.388C13.4991 83.992 14.3991 83.188 14.8791 82.132C15.3711 83.092 16.2951 83.848 17.5431 84.196ZM20.6271 78.088H19.3911V81.016H17.4711V82.036H19.3911V84.472H20.6271V78.088ZM13.5111 85V88.792H20.6271V85H13.5111ZM14.7231 87.808V85.984H19.4151V87.808H14.7231ZM27.5861 81.988C30.0701 81.988 31.4501 81.328 31.4501 80.128C31.4501 78.916 30.0701 78.256 27.5861 78.256C25.0901 78.256 23.7221 78.916 23.7221 80.128C23.7221 81.328 25.0901 81.988 27.5861 81.988ZM27.5861 79.18C29.2781 79.18 30.1661 79.504 30.1661 80.128C30.1661 80.74 29.2781 81.064 27.5861 81.064C25.8941 81.064 25.0061 80.74 25.0061 80.128C25.0061 79.504 25.8941 79.18 27.5861 79.18ZM32.4941 82.624H22.6781V83.608H32.4941V82.624ZM25.0901 87.88V86.98H31.2581V84.388H23.8421V85.324H30.0461V86.104H23.8661V88.828H31.5701V87.88H25.0901ZM46.1928 83.752H41.9208V82.864H45.1008V81.916H38.8848V81.076H44.7648V80.152H38.8848V79.336H45.0288V78.388H37.6488V82.864H40.6728V83.752H36.3888V84.748H46.1928V83.752ZM41.2848 85.42C38.8728 85.42 37.5528 86.008 37.5528 87.16C37.5528 88.312 38.8728 88.924 41.2848 88.924C43.7208 88.924 45.0168 88.312 45.0168 87.16C45.0168 86.008 43.7208 85.42 41.2848 85.42ZM41.2848 88C39.6288 88 38.8008 87.724 38.8008 87.16C38.8008 86.608 39.6288 86.332 41.2848 86.332C42.9528 86.332 43.7808 86.608 43.7808 87.16C43.7808 87.724 42.9528 88 41.2848 88ZM56.6798 78.088H55.5038V82.576H54.3518V78.316H53.1998V88.42H54.3518V83.596H55.5038V88.924H56.6798V78.088ZM50.7038 79.852V78.4H49.4798V79.852H47.4278V80.848H52.7318V79.852H50.7038ZM50.0918 81.46C48.7118 81.46 47.7398 82.48 47.7398 83.98C47.7398 85.468 48.7118 86.5 50.0918 86.5C51.4718 86.5 52.4438 85.468 52.4438 83.98C52.4438 82.48 51.4718 81.46 50.0918 81.46ZM50.0918 85.468C49.3598 85.468 48.8438 84.892 48.8438 83.98C48.8438 83.068 49.3598 82.48 50.0918 82.48C50.8238 82.48 51.3398 83.068 51.3398 83.98C51.3398 84.892 50.8238 85.468 50.0918 85.468ZM70.0305 84.4L70.5705 83.38C68.4345 82.996 66.6945 81.328 66.6945 79.6V78.784H65.3865V79.6C65.3865 81.292 63.6465 82.996 61.5105 83.38L62.0385 84.4C63.8025 84.052 65.3265 82.9 66.0345 81.424C66.7425 82.9 68.2665 84.052 70.0305 84.4ZM70.9905 86.512H61.1745V87.532H70.9905V86.512ZM82.2936 83.356V82.336H80.6016V78.076H79.3656V88.936H80.6016V83.356H82.2936ZM73.8936 85.384V83.056H77.5176V82.06H73.8936V80.044H77.7216V79.024H72.6576V86.392H73.5336C75.4536 86.392 76.9296 86.32 78.5856 86.068L78.4656 85.06C76.9416 85.312 75.6216 85.384 73.8936 85.384ZM92.2286 78.076L90.9926 78.088V80.836H88.7366V78.712H87.5246V80.392H84.9686V78.724H83.7446V83.992H88.7366V81.844H90.9926V84.544H92.2286V78.076ZM87.5246 81.352V82.996H84.9686V81.352H87.5246ZM84.9206 85.084V86.08H90.9926V88.936H92.2286V85.084H84.9206ZM103.148 84.4L103.688 83.38C101.552 82.996 99.8117 81.328 99.8117 79.6V78.784H98.5037V79.6C98.5037 81.292 96.7637 82.996 94.6277 83.38L95.1557 84.4C96.9197 84.052 98.4437 82.9 99.1517 81.424C99.8597 82.9 101.384 84.052 103.148 84.4ZM104.108 86.512H94.2917V87.532H104.108V86.512ZM118.094 83.344V82.324H116.402V78.088H115.166V88.936H116.402V83.344H118.094ZM110.894 78.88C109.274 78.88 108.11 80.368 108.11 82.708C108.11 85.048 109.274 86.524 110.894 86.524C112.514 86.524 113.678 85.048 113.678 82.708C113.678 80.368 112.514 78.88 110.894 78.88ZM110.894 85.42C109.934 85.42 109.298 84.4 109.298 82.708C109.298 81.016 109.934 79.996 110.894 79.996C111.854 79.996 112.49 81.016 112.49 82.708C112.49 84.4 111.854 85.42 110.894 85.42ZM128.305 78.088H127.129V88.912H128.305V78.088ZM124.957 78.292V82.108H123.589V79.276H119.413V86.104H123.589V83.116H124.957V88.408H126.109V78.292H124.957ZM122.437 80.26V85.12H120.565V80.26H122.437ZM139.032 78.064H137.784V88.948H139.032V78.064ZM131.952 85.348V83.068H135.732V79.048H130.68V80.056H134.484V82.072H130.704V86.368H131.628C133.536 86.368 135.156 86.308 137.016 85.984L136.884 84.976C135.168 85.252 133.668 85.336 131.952 85.348ZM151.164 83.392V82.36H149.52V78.076H148.284V88.912H149.52V83.392H151.164ZM146.724 79.168H141.792V80.176H145.5C145.452 80.776 145.356 81.34 145.212 81.868L141.24 82.12L141.408 83.188L144.84 82.852C144.204 84.208 143.088 85.3 141.168 86.26L141.84 87.22C145.776 85.24 146.724 82.408 146.724 79.168ZM161.987 86.596H157.691V83.896H160.907V82.888H154.571V78.964H153.323V83.896H156.443V86.596H152.171V87.616H161.987V86.596ZM170.566 79.204V79.936H164.458V82.372H171.982V81.508H165.67V80.74H171.79V78.352H164.434V79.204H170.566ZM173.026 83.056H163.198V83.968H173.026V83.056ZM165.586 87.952V87.124H171.826V84.7H164.338V85.552H170.602V86.32H164.362V88.804H172.15V87.952H165.586ZM185.644 84.196V83.2H179.368V80.044H185.56V79.036H178.132V84.196H185.644ZM186.76 86.512H176.932V87.532H186.76V86.512ZM196.899 78.088H195.663V84.076H196.899V78.088ZM194.679 83.548L194.535 82.54C192.963 82.792 191.619 82.864 189.747 82.864V81.664H193.455V78.592H188.499V79.6H192.243V80.728H188.523V83.872H189.435C191.511 83.872 192.987 83.836 194.679 83.548ZM195.675 84.58V85.696H191.031V84.58H189.795V88.792H196.899V84.58H195.675ZM195.675 86.668V87.796H191.031V86.668H195.675ZM207.962 78.088H206.726V88.924H207.962V78.088ZM200.87 85.132V79.144H199.646V86.188H200.57C202.262 86.188 203.978 86.056 205.862 85.672L205.73 84.64C203.99 84.988 202.418 85.12 200.87 85.132ZM220.13 83.272V82.252H218.438V78.076H217.202V88.936H218.438V83.272H220.13ZM211.718 85.24V80.116H215.522V79.108H210.482V86.272H211.37C213.326 86.272 214.802 86.2 216.434 85.912L216.302 84.892C214.802 85.144 213.446 85.24 211.718 85.24ZM222.421 88.156V86.668H221.005V88.156H222.421Z" fill="white"/>
<path d="M4.873 3.376V10H8.887V9.118H5.917V6.976H8.347V6.094H5.917V4.249H8.788V3.376H4.873ZM9.36948 3.376L11.4485 10H12.6815L14.7515 3.376H13.6895L12.7085 6.805C12.4925 7.561 12.3305 8.209 12.1055 8.974H12.0605C11.8175 8.209 11.6825 7.561 11.4575 6.805L10.4765 3.376H9.36948ZM15.6132 3.376V10H19.6272V9.118H16.6572V6.976H19.0872V6.094H16.6572V4.249H19.5282V3.376H15.6132ZM21.0097 3.376V10H21.9997V6.877C21.9997 6.157 21.9277 5.392 21.8647 4.708H21.9097L22.6027 6.094L24.7987 10H25.8697V3.376H24.8797V6.463C24.8797 7.183 24.9517 7.984 25.0147 8.668H24.9697L24.2767 7.264L22.0807 3.376H21.0097ZM28.9601 4.249V10H30.0041V4.249H31.9571V3.376H27.0161V4.249H28.9601Z" fill="white"/>
<path d="M14.166 28.928L14.958 27.128C11.142 26.75 9.45 25.184 9.45 23.456V23.114H7.02V23.456C7.02 25.184 5.328 26.75 1.512 27.128L2.304 28.928C5.13 28.586 7.164 27.614 8.244 26.102C9.342 27.65 11.304 28.586 14.166 28.928ZM15.75 31.592V29.738H9.432V27.974H7.056V29.738H0.774V31.592H15.75ZM14.364 37.64H4.86V36.722H13.932V32.438H2.484V34.184H11.592V35.066H2.502V39.422H14.364V37.64ZM19.0966 33.392H30.7426V31.52H21.5086V29.666H30.2386V27.83H21.5086V26.084H30.6166V24.176H19.0966V33.392ZM32.3446 37.64V35.714H17.3326V37.64H32.3446ZM50.9473 31.322H53.3593V29.342H50.9473V22.97H48.5713V39.548H50.9473V31.322ZM44.0713 26.66V24.248H41.6773V26.66C41.6773 29.738 40.4173 32.924 37.6273 34.22L39.0493 36.146C40.9213 35.228 42.1633 33.482 42.8833 31.376C43.5853 33.41 44.7373 34.958 46.4653 35.84L47.9053 33.968C45.2413 32.672 44.0713 29.648 44.0713 26.66ZM69.5039 32.708V30.836H66.1019V28.856C67.3259 28.298 68.0279 27.488 68.0279 26.408C68.0279 24.428 65.6879 23.222 62.0159 23.222C58.3619 23.222 56.0219 24.428 56.0219 26.408C56.0219 27.47 56.6519 28.28 57.8939 28.838V30.836H54.5279V32.708H69.5039ZM62.0159 25.022C64.3379 25.022 65.5799 25.472 65.5799 26.408C65.5799 27.326 64.3379 27.776 62.0159 27.776C59.7659 27.776 58.4699 27.326 58.4699 26.408C58.4699 25.472 59.7659 25.022 62.0159 25.022ZM63.7259 30.836H60.2699V29.45C60.8099 29.522 61.3859 29.558 62.0159 29.558C62.6459 29.558 63.2039 29.522 63.7259 29.468V30.836ZM61.9799 33.536C58.3979 33.536 56.2379 34.616 56.2379 36.542C56.2379 38.486 58.3979 39.566 61.9799 39.566C65.5619 39.566 67.7399 38.486 67.7399 36.542C67.7399 34.616 65.5619 33.536 61.9799 33.536ZM61.9799 37.766C59.7479 37.766 58.6319 37.352 58.6319 36.542C58.6319 35.696 59.7299 35.336 61.9799 35.336C64.2299 35.336 65.3279 35.696 65.3279 36.542C65.3279 37.352 64.2119 37.766 61.9799 37.766ZM75.8846 26.552H89.3666V24.698H83.8406V22.952H81.4646V24.698H75.8846V26.552ZM76.9826 30.062C76.9826 31.88 79.1066 32.906 82.6526 32.906C86.1986 32.906 88.3406 31.88 88.3406 30.062C88.3406 28.244 86.1986 27.2 82.6526 27.2C79.1066 27.2 76.9826 28.244 76.9826 30.062ZM85.8746 30.062C85.8746 30.782 84.7946 31.142 82.6526 31.142C80.5106 31.142 79.4486 30.782 79.4486 30.062C79.4486 29.288 80.4746 28.964 82.6526 28.964C84.8306 28.964 85.8746 29.288 85.8746 30.062ZM83.8406 35.606H90.1766V33.698H75.1646V35.606H81.4646V39.566H83.8406V35.606ZM105.529 39.53V22.952H103.135V39.53H105.529ZM100.597 24.68H92.6412V26.57H98.1672C97.8252 30.242 95.9892 32.852 91.7592 34.868L93.0012 36.74C98.8872 33.914 100.597 29.738 100.597 24.68ZM110.118 24.86H119.118V25.67H110.154V29.63H121.746V28.028H112.494V27.164H121.458V23.258H110.118V24.86ZM123.294 32.132V30.422H108.282V32.132H123.294ZM121.962 37.802H112.35V36.902H121.512V32.96H109.974V34.562H119.154V35.408H109.992V39.404H121.962V37.802ZM11.16 56.27L13.5 56.504C13.95 54.776 13.968 53.39 13.968 52.076V50.708H2.484V52.58H11.592C11.592 53.678 11.538 54.758 11.16 56.27ZM15.732 59.258V57.386H8.712V54.488H6.336V57.386H0.81V59.258H15.732ZM8.172 60.302C4.608 60.302 2.304 61.49 2.304 63.434C2.304 65.36 4.608 66.548 8.172 66.548C11.754 66.548 14.058 65.36 14.058 63.434C14.058 61.49 11.754 60.302 8.172 60.302ZM8.172 64.766C5.922 64.766 4.662 64.316 4.662 63.434C4.662 62.516 5.922 62.084 8.172 62.084C10.422 62.084 11.7 62.516 11.7 63.434C11.7 64.316 10.422 64.766 8.172 64.766ZM24.8026 57.944C28.3306 57.944 30.7966 56.486 30.7966 54.236C30.7966 51.986 28.3306 50.528 24.8026 50.528C21.2746 50.528 18.8086 51.986 18.8086 54.236C18.8086 56.486 21.2746 57.944 24.8026 57.944ZM24.8026 52.418C26.9806 52.418 28.3486 53.066 28.3486 54.236C28.3486 55.46 26.9806 56.054 24.8026 56.054C22.6246 56.054 21.2386 55.46 21.2386 54.236C21.2386 53.066 22.6246 52.418 24.8026 52.418ZM28.8706 61.112H32.3446V59.186H17.3326V61.112H20.7346V66.53H23.1286V61.112H26.4586V66.53H28.8706V61.112ZM48.1112 66.53V49.952H45.8612V56.72H44.6012V50.276H42.3872V65.846H44.6012V58.628H45.8612V66.53H48.1112ZM41.7932 52.472H39.0392V50.42H36.6992V52.472H33.8732V54.362H41.7932V52.472ZM37.8692 55.082C35.7632 55.082 34.2332 56.72 34.2332 59.042C34.2332 61.346 35.7632 62.984 37.8692 62.984C39.9752 62.984 41.5052 61.346 41.5052 59.042C41.5052 56.72 39.9752 55.082 37.8692 55.082ZM37.8692 61.004C36.9512 61.004 36.3212 60.284 36.3212 59.042C36.3212 57.8 36.9512 57.062 37.8692 57.062C38.7872 57.062 39.4172 57.8 39.4172 59.042C39.4172 60.284 38.7872 61.004 37.8692 61.004ZM51.1698 56.324L52.0338 58.178C54.9318 57.764 56.9478 56.576 57.9558 54.848C58.9638 56.576 60.9798 57.764 63.8778 58.178L64.7238 56.324C61.3398 55.892 59.6118 54.308 59.3778 52.706H64.0758V50.816H51.7818V52.706H56.5518C56.3178 54.308 54.5718 55.892 51.1698 56.324ZM59.0898 61.022H65.4438V59.132H50.4678V61.022H56.7138V66.584H59.0898V61.022ZM81.2284 66.548V49.97H78.9784V66.548H81.2284ZM77.8264 50.24H75.6124V55.568H73.5424V57.494H75.6124V65.81H77.8264V50.24ZM72.3004 54.11V51.41H70.0144V54.2C70.0144 57.026 69.1324 59.996 66.7024 61.472L68.1244 63.254C69.6364 62.336 70.5904 60.806 71.1664 58.934C71.6884 60.608 72.5344 62.012 73.9744 62.876L75.2704 61.04C73.0204 59.546 72.3004 56.792 72.3004 54.11ZM98.579 64.622V62.696H95.249V58.646C96.491 57.872 97.247 56.684 97.247 55.244C97.247 52.526 94.637 50.78 91.055 50.78C87.509 50.78 84.881 52.526 84.881 55.244C84.863 56.684 85.583 57.872 86.879 58.646V62.696H83.567V64.622H98.579ZM91.055 52.652C93.359 52.652 94.907 53.588 94.907 55.244C94.907 56.9 93.359 57.836 91.055 57.836C88.751 57.836 87.221 56.9 87.221 55.244C87.221 53.588 88.751 52.652 91.055 52.652ZM92.891 62.696H89.237V59.528C89.813 59.636 90.425 59.69 91.055 59.69C91.703 59.69 92.315 59.636 92.891 59.528V62.696ZM101.818 61.184H103.546L103.924 53.822L104.014 51.32H101.35L101.44 53.822L101.818 61.184ZM101.386 65.252H104.014V62.696H101.386V65.252Z" fill="white"/>
</svg>
