<svg width="32" height="32" viewBox="0 0 32 32" fill="none" xmlns="http://www.w3.org/2000/svg">
<g filter="url(#filter0_b_139_4301)">
<circle cx="16" cy="16" r="16" fill="#373737" fill-opacity="0.2"/>
</g>
<path d="M8.45067 17.9082L15.4033 24.4395C15.6428 24.6644 15.7625 24.7769 15.9037 24.8046C15.9673 24.8171 16.0327 24.8171 16.0963 24.8046C16.2375 24.7769 16.3572 24.6644 16.5967 24.4395L23.5493 17.9082C25.5055 16.0706 25.743 13.0466 24.0978 10.9261L23.7885 10.5273C21.8203 7.99058 17.8696 8.41601 16.4867 11.3137C16.2913 11.723 15.7087 11.723 15.5133 11.3137C14.1304 8.41601 10.1797 7.99058 8.21154 10.5273L7.90219 10.9261C6.25695 13.0466 6.4945 16.0706 8.45067 17.9082Z" fill="#EA5324" stroke="white" stroke-width="2"/>
<defs>
<filter id="filter0_b_139_4301" x="-4" y="-4" width="40" height="40" filterUnits="userSpaceOnUse" color-interpolation-filters="sRGB">
<feFlood flood-opacity="0" result="BackgroundImageFix"/>
<feGaussianBlur in="BackgroundImage" stdDeviation="2"/>
<feComposite in2="SourceAlpha" operator="in" result="effect1_backgroundBlur_139_4301"/>
<feBlend mode="normal" in="SourceGraphic" in2="effect1_backgroundBlur_139_4301" result="shape"/>
</filter>
</defs>
</svg>
