<svg width="153" height="36" viewBox="0 0 153 36" fill="none" xmlns="http://www.w3.org/2000/svg">
<path d="M40.8709 23.6771C40.8709 31.179 34.3908 36 21.9836 36C13.2477 36 5.50704 33.7472 0.0222168 29.7372L6.34746 22.3254C10.0409 24.8711 15.7911 26.8986 22.1827 26.8986C26.053 26.8986 27.8887 26.3129 27.8887 25.1189C27.8887 23.9249 26.6059 23.4293 21.0769 22.9562C10.638 22.0325 1.504 19.577 1.504 11.6921C1.504 3.80726 9.59854 0 20.5461 0C27.4021 0 34.4793 1.57697 39.4776 4.75344L33.4841 12.2103C29.658 9.84481 25.3674 8.94368 20.5903 8.94368C17.7152 8.94368 14.4862 9.23655 14.4862 10.5207C14.4862 11.6245 16.7642 11.9625 21.5192 12.3454C32.7985 13.3141 40.8488 15.4318 40.8488 23.6546L40.8709 23.6771Z" fill="white"/>
<path d="M43.0603 15.995C43.0603 4.84355 50.9779 0 62.6774 0C74.3769 0 82.2945 4.82103 82.2945 15.995C82.2945 25.5469 67.9189 32.7559 63.7832 34.2653C63.0755 34.5131 62.2793 34.5131 61.5716 34.2653C57.4358 32.7559 43.0603 25.5469 43.0603 15.995ZM70.5729 15.4768C70.5729 11.6245 67.6093 9.32666 62.6774 9.32666C57.7455 9.32666 54.7819 11.6245 54.7819 15.4768C54.7819 19.3292 57.7455 21.627 62.6774 21.627C67.6093 21.627 70.5729 19.3292 70.5729 15.4768Z" fill="white"/>
<path d="M119.892 24.8265V34.829H86.3638V1.14941H99.5893V24.8265H119.892Z" fill="white"/>
<path d="M153 11.0167H140.526V34.829H127.301V11.0167H114.827V1.14941H153V11.0167Z" fill="white"/>
</svg>
