<svg width="24" height="24" viewBox="0 0 24 24" fill="none" xmlns="http://www.w3.org/2000/svg">
<path fill-rule="evenodd" clip-rule="evenodd" d="M16.8869 6.64352C16.887 7.28634 16.7604 7.92288 16.5145 8.5168C16.2686 9.11071 15.9081 9.65037 15.4536 10.105C14.9991 10.5595 14.4595 10.9202 13.8656 11.1662C13.2718 11.4123 12.6352 11.539 11.9924 11.539C10.6942 11.5392 9.44908 11.0236 8.53099 10.1057C7.61291 9.18777 7.09706 7.94276 7.09693 6.64452C7.09686 6.0017 7.22341 5.36516 7.46935 4.77125C7.71528 4.17734 8.07579 3.63768 8.53029 3.18309C9.44818 2.265 10.6932 1.74916 11.9914 1.74902C13.2897 1.74889 14.5348 2.26449 15.4529 3.18238C16.3709 4.10028 16.8868 5.34529 16.8869 6.64352M11.9919 13.0365C4.94293 13.0365 2.20093 17.5225 2.20093 19.6095C2.20093 21.6955 8.03793 22.2515 11.9919 22.2515C15.9459 22.2515 21.7829 21.6955 21.7829 19.6095C21.7829 17.5225 19.0409 13.0365 11.9919 13.0365Z" fill="#8F8F8F"/>
</svg>
